<svg width="140" height="140" viewBox="0 0 140 140" fill="none" xmlns="http://www.w3.org/2000/svg">
<path d="M118 34H64L52 22H22C15.4 22 10 27.4 10 34V58H130V46C130 39.4 124.6 34 118 34Z" fill="#526D82"/>
<path d="M118 34H22C15.4 34 10 39.4 10 46V106C10 112.6 15.4 118 22 118H118C124.6 118 130 112.6 130 106V46C130 39.4 124.6 34 118 34Z" fill="#27374D"/>
<path d="M78.56 84.618H74.456L67.592 74.226V84.618H63.488V67.77H67.592L74.456 78.21V67.77H78.56V84.618Z" fill="#DDE6ED"/>
<path fill-rule="evenodd" clip-rule="evenodd" d="M70.4394 100.121C84.0038 100.121 95 89.1251 95 75.5606C95 68.4459 91.9748 62.0377 87.1406 57.5523V61.0797C90.5066 64.9585 92.5439 70.0217 92.5439 75.5606C92.5439 87.7686 82.6474 97.6652 70.4393 97.6652C59.0615 97.6652 49.6914 89.0688 48.4697 78.0167H46C47.2323 90.428 57.7038 100.121 70.4394 100.121ZM46 73.1046H48.4697C49.6914 62.0524 59.0615 53.456 70.4393 53.456C74.5673 53.456 78.431 54.5876 81.7372 56.5574V53.747C78.3551 51.9918 74.5131 51 70.4394 51C57.7038 51 47.2323 60.6933 46 73.1046Z" fill="#DDE6ED"/>
</svg>
