<svg width="300" height="300" viewBox="0 0 300 300" fill="none" xmlns="http://www.w3.org/2000/svg">
<rect width="300" height="300" rx="8" fill="white"/>
<path d="M198 114H144L132 102H102C95.4 102 90 107.4 90 114V138H210V126C210 119.4 204.6 114 198 114Z" fill="#526D82"/>
<path d="M198 114H102C95.4 114 90 119.4 90 126V186C90 192.6 95.4 198 102 198H198C204.6 198 210 192.6 210 186V126C210 119.4 204.6 114 198 114Z" fill="#27374D"/>
<path d="M158.56 164.618H154.456L147.592 154.226V164.618H143.488V147.77H147.592L154.456 158.21V147.77H158.56V164.618Z" fill="#DDE6ED"/>
<path fill-rule="evenodd" clip-rule="evenodd" d="M150.439 180.121C164.004 180.121 175 169.125 175 155.561C175 148.446 171.975 142.038 167.141 137.552V141.08C170.507 144.959 172.544 150.022 172.544 155.561C172.544 167.769 162.647 177.665 150.439 177.665C139.062 177.665 129.691 169.069 128.47 158.017H126C127.232 170.428 137.704 180.121 150.439 180.121ZM126 153.105H128.47C129.691 142.052 139.061 133.456 150.439 133.456C154.567 133.456 158.431 134.588 161.737 136.557V133.747C158.355 131.992 154.513 131 150.439 131C137.704 131 127.232 140.693 126 153.105Z" fill="#DDE6ED"/>
</svg>
